Coordinates
version=1
nRows=12
nColumns=33
inDegrees=yes

Units are S.I. units (second, meters, Newtons, ...)
Angles are in degrees.

endheader
time	ground_thorax_rot_x	ground_thorax_rot_y	ground_thorax_rot_z	ground_thorax_tx	ground_thorax_ty	ground_thorax_tz	clav_prot_r	clav_elev_r	scapula_abduction_r	scapula_elevation_r	scapula_upward_rot_r	scapula_winging_r	shoulder_elv_r	plane_of_elev_r	axial_rot_r	elbow_flexion_r	pro_sup_r	wrist_flex_r	wrist_dev_r	clav_prot_l	clav_elev_l	scapula_abduction_l	scapula_elevation_l	scapula_upward_rot_l	scapula_winging_l	shoulder_elv_l	plane_of_elev_l	axial_rot_l	elbow_flexion_l	pro_sup_l	wrist_flex_l	wrist_dev_l
      2.28000000	      1.17060613	     -0.42953273	     -8.43262279	     -0.07029961	      1.05236063	     -0.00253891	    -11.10876638	     -6.89171286	     -6.67142877	     -2.79881891	     12.43769454	     -1.63041129	     60.67963578	    -31.91578031	     54.18349601	     83.62605328	    -14.17688593	     11.40819205	     11.22358264	     -3.65506981	     -5.55635234	     -1.61948776	     -1.76136258	     -0.19680840	      0.84346632	     60.90629543	    -38.43809028	    -41.61147257	     79.55206851	    -30.97874854	     -0.51764642	    -12.14266706
      2.29000000	      1.17039529	     -0.38690323	     -8.43265655	     -0.07025506	      1.05228237	     -0.00260051	    -10.95465475	     -7.13688784	     -6.51354350	     -2.92235949	     12.15624114	     -1.50182206	     59.74444661	    -30.67273659	     52.94308692	     82.21232266	    -16.18221669	     10.52300770	     10.88145556	     -3.42476177	     -5.89944239	     -1.97697458	     -1.55417940	     -0.46214818	      0.79490282	     60.45735565	    -36.94615027	    -40.66221466	     78.33963253	    -32.37392372	     -0.78455107	    -11.15478455
      2.30000000	      1.16969824	     -0.33905129	     -8.43175614	     -0.07023086	      1.05220782	     -0.00266675	    -10.78122762	     -7.38980478	     -6.33198383	     -3.04578872	     11.85438026	     -1.36910714	     58.78824137	    -29.40293888	     51.71435345	     80.66097805	    -18.14358914	      9.59841030	     10.51617597	     -3.19428088	     -6.27682508	     -2.33108652	     -1.32250368	     -0.74478944	      0.73116644	     60.00349092	    -35.40576346	    -39.64499834	     76.96316636	    -33.63553527	     -0.98556300	    -10.08970269
      2.31000000	      1.19307266	     -0.27259915	     -8.50628700	     -0.06973637	      1.05296285	     -0.00274102	    -10.62062276	     -8.14541001	     -6.04976957	     -3.63478973	     11.61715396	     -1.04129213	     58.21861759	    -28.67292161	     50.63714176	     79.16199979	    -18.59671445	      9.13579308	     10.13577839	     -3.09193042	     -7.16632576	     -2.62535972	     -0.54800025	     -0.79599705	      0.49814510	     59.69373500	    -34.36885369	    -38.81154125	     75.35503453	    -33.99610319	     -1.26009854	     -9.61844258
      2.32000000	      1.16673281	     -0.27276802	     -8.41793581	     -0.07019816	      1.05207498	     -0.00278399	    -10.35883750	     -7.91558821	     -5.86175854	     -3.29107730	     11.20012467	     -1.10240089	     56.80535948	    -26.77658620	     49.11178856	     77.16372408	    -20.88107812	      7.65533908	      9.82300092	     -2.77847497	     -7.06870783	     -2.97476068	     -0.81063222	     -1.26890643	      0.57556339	     59.00148112	    -32.19489092	    -37.46649618	     73.68891593	    -35.45058300	     -1.04763518	     -7.70300119
      2.33000000	      1.17497056	     -0.20679527	     -8.41767448	     -0.07024879	      1.05204403	     -0.00282501	    -10.17107028	     -8.21414279	     -5.64221110	     -3.45746304	     10.90855884	     -0.95784241	     55.76875751	    -25.43911952	     47.88067089	     75.15148100	    -22.77702295	      6.75768770	      9.47561437	     -2.50055003	     -7.51606948	     -3.39801079	     -0.53325511	     -1.59556921	      0.49889620	     58.51230524	    -30.54334218	    -36.23238903	     71.83458194	    -36.57348177	     -0.88192152	     -6.26471624
      2.34000000	      1.17374880	     -0.14948022	     -8.40260178	     -0.07028694	      1.05206361	     -0.00285199	     -9.98114503	     -8.55765271	     -5.44827653	     -3.64301253	     10.55079375	     -0.77877525	     54.77209961	    -24.03247525	     46.62538457	     72.99361674	    -24.07784185	      5.86717607	      9.12689680	     -2.26260364	     -7.98568530	     -3.77613185	     -0.21147465	     -1.85627685	      0.40591859	     57.99822193	    -28.90127957	    -35.05654501	     69.80217729	    -37.42735093	     -0.66774752	     -4.86533896
      2.35000000	      1.16589679	     -0.09104678	     -8.36964263	     -0.07034570	      1.05205972	     -0.00286759	     -9.78821872	     -8.89990431	     -5.26696538	     -3.81729340	     10.16034034	     -0.59416208	     53.76432342	    -22.54565615	     45.33417540	     70.64926756	    -25.05254506	      4.96574148	      8.87642205	     -2.01845235	     -8.42729433	     -4.15904758	      0.08525594	     -2.11739992	      0.32203456	     57.44934912	    -27.20671627	    -33.83061453	     67.61546097	    -38.19680006	     -0.31286846	     -3.32238311
      2.36000000	      1.14331109	     -0.05515942	     -8.44138263	     -0.07049857	      1.05199253	     -0.00288068	     -9.56557082	     -9.31037620	     -5.01871462	     -4.05394505	      9.77906596	     -0.38897128	     52.81733531	    -20.97096281	     44.05792044	     68.11973372	    -25.68936722	      4.09915778	      8.69948156	     -1.75970909	     -8.90296340	     -4.58863318	      0.43337590	     -2.31858665	      0.24410058	     56.96191931	    -25.49384621	    -32.65338139	     65.30468972	    -38.83551375	      0.08535882	     -1.79401006
      2.37000000	      1.16678816	      0.00322743	     -8.50172440	     -0.07014235	      1.05268363	     -0.00290780	     -9.37872387	    -10.11443816	     -4.77932197	     -4.64384342	      9.39622965	      0.01054503	     52.12962805	    -19.90797573	     42.77759022	     65.59725780	    -25.88990358	      3.48546802	      8.35912695	     -1.60469788	     -9.79641001	     -4.90469610	      1.18507973	     -2.44713882	     -0.04217677	     56.52904618	    -24.24185351	    -31.57978863	     62.88975347	    -39.15145637	      0.02877277	     -0.92025214
      2.38000000	      1.11829969	      0.01806096	     -8.25095893	     -0.07069232	      1.05189186	     -0.00288759	     -9.16617295	    -10.01908542	     -4.71561889	     -4.37179049	      8.83468122	      0.02709212	     50.87337671	    -17.66969037	     41.47093817	     62.40419770	    -26.40680122	      2.34355838	      8.75228004	     -1.28685570	     -9.74023757	     -5.29527008	      0.97781915	     -2.86379999	      0.06528969	     55.79759530	    -21.94749995	    -30.28587269	     60.12870114	    -39.92839561	      1.16064492	      1.49151855
      2.39000000	      1.12276821	      0.07971132	     -8.14538339	     -0.07079747	      1.05193627	     -0.00286243	     -8.98532936	    -10.46410094	     -4.59597088	     -4.60491921	      8.33853917	      0.28764948	     50.00829644	    -16.05187235	     40.24434691	     59.27100931	    -26.64745910	      1.62658963	      8.95090717	     -0.97065396	    -10.23307459	     -5.75929743	      1.28525509	     -3.21864433	     -0.03063105	     55.30456346	    -20.19814300	    -29.07395508	     57.29673082	    -40.20450499	      1.84332521	      3.07402649
